<?xml version="1.0" encoding="utf-8"?>
<svg xmlns="http://www.w3.org/2000/svg" viewBox="2.4986 1.9454 507.1939 507.1391" width="507.1939px" height="507.1391px">
<g transform="matrix(9.3100004196167, 0, 0, 9.3100004196167, 326.54998779296875, 255.55003356933594)">
<path style="stroke: none; stroke-width: 1; stroke-dasharray: none; stroke-linecap: butt; stroke-dashoffset: 0; stroke-linejoin: miter; stroke-miterlimit: 4; fill: rgb(51,103,145); fill-rule: nonzero; opacity: 1;" vector-effect="non-scaling-stroke" transform=" translate(-1005.55,-354.82)" d="m 1010.66,381.96 c -0.17,-0.35 -0.1,-0.68 -0.1,-1 v -12.69 c 0,-0.26 0.02,-0.53 -0.01,-0.79 -0.06,-0.62 -0.41,-0.95 -1.04,-0.96 -1.06,-0.02 -2.12,-0.02 -3.17,0 -0.71,0.01 -1.01,0.33 -1.05,1.03 -0.01,0.23 0,0.47 0,0.71 v 12.78 c 0,0.29 -0.01,0.58 -0.02,0.83 -0.28,0.23 -0.55,0.15 -0.81,0.15 h -6.7 c -2.29,0 -4.58,0.02 -6.87,0.03 -0.38,0 -0.77,0 -1.14,-0.06 -0.97,-0.18 -1.72,-0.71 -2.28,-1.53 -0.7,-1.04 -1.14,-2.18 -1.39,-3.4 -0.36,-1.74 -0.21,-3.44 0.29,-5.13 0.72,-2.43 1.93,-4.6 3.48,-6.58 1.01,-1.3 2.07,-2.56 3.12,-3.82 1.55,-1.88 3.18,-3.7 4.62,-5.66 2.07,-2.81 3.52,-5.89 4.27,-9.29 0.5,-2.25 0.6,-4.53 0.33,-6.83 -0.49,-4.09 -2.13,-7.72 -4.4,-11.11 -0.13,-0.19 -0.26,-0.39 -0.39,-0.59 -0.03,-0.04 -0.02,-0.11 -0.03,-0.18 0.09,-0.22 0.3,-0.26 0.5,-0.27 h 1.41 c 8.8021,0.005 12.5199,2.6e-4 16.3114,10e-4 4.8231,0.0582 9.6223,4.84466 9.603,9.66711 0.011,4.50295 -0.015,16.34749 -4e-4,23.3222 0,6.49 0.019,4.69193 0.029,11.18193 0,0.35 -0.01,0.60184 -0.011,0.60742 -0.038,4.72077 -4.7602,9.698 -9.352,9.65387 -0.01,0.001 0.01,-2e-4 -2e-4,6.7e-4 0,0 -0.38,-0.004 -4.53,-0.0142 -0.23,0 -0.46,-0.04 -0.67,-0.06 z" stroke-linecap="round" />
</g>
<g transform="matrix(9.3100004196167, 0, 0, 9.3100004196167, 125.04000091552734, 255.510009765625)">
<path style="stroke: none; stroke-width: 1; stroke-dasharray: none; stroke-linecap: butt; stroke-dashoffset: 0; stroke-linejoin: miter; stroke-miterlimit: 4; fill: rgb(94,146,187); fill-rule: nonzero; opacity: 1;" vector-effect="non-scaling-stroke" transform=" translate(-983.89,-354.81)" d="m 970.73,354.81 c 0.0282,-5.18503 0.0451,-15.46123 0.0206,-17.58401 -0.004,-4.80415 3.75898,-9.63574 9.64612,-9.61683 1.79617,-0.0502 5.35992,-0.002 7.69328,-0.0292 0.97994,-0.0113 1.83,0.33 2.56,0.98 2.2,1.93 3.87,4.25 5,6.94 0.51,1.22 0.89,2.49 1.13,3.78 0.3,1.59 0.35,3.22 0.17,4.82 -0.26,2.44 -1.02,4.75 -2.37,6.83 -0.91,1.4 -1.91,2.74 -2.99,4.02 -1.02,1.21 -2.01,2.44 -3.01,3.66 -0.65,0.79 -1.33,1.56 -1.97,2.36 -1.16,1.44 -2.21,2.95 -3.15,4.55 -0.69,1.17 -1.23,2.4 -1.7,3.66 -0.39,1.04 -0.64,2.13 -0.83,3.22 -0.14,0.76 -0.16,1.51 -0.17,2.27 0,1.42 0.27,2.79 0.84,4.1 0.22,0.51 0.43,1.03 0.61,1.55 0.46,1.32 -0.21,1.57 -1.14,1.71 -0.12,0.02 -0.23,0 -0.35,0 l -0.37272,0.0202 0.0329,-4.5e-4 c -4.77171,-0.0246 -9.62977,-4.92201 -9.64463,-9.75625 7e-4,-0.0647 6.7e-4,-0.033 6.7e-4,-0.033 L 970.74,354.79 v 0 z m 8.27,-9.95 c 0.56,0 1.12,0.02 1.67,0 0.64,-0.03 0.95,-0.34 0.98,-1 0.02,-0.41 0,-0.82 0,-1.23 0,-0.62 0.01,-1.23 0,-1.85 -0.02,-0.71 -0.27,-1 -0.96,-1.15 -0.2,-0.04 -0.41,-0.05 -0.61,-0.05 h -1.94 c -0.23,0 -0.47,-0.01 -0.7,0 -0.7,0.07 -1.06,0.44 -1.07,1.13 -0.01,1.09 -0.02,2.17 0,3.26 0.01,0.59 0.29,0.86 0.86,0.88 0.59,0.02 1.17,0 1.76,0 z" stroke-linecap="round" />
</g>
</svg>
