<?xml version="1.0" encoding="utf-8"?>
<svg xmlns="http://www.w3.org/2000/svg" viewBox="2.4986 1.9454 507.1939 507.1391" width="507.1939px" height="507.1391px">
<g transform="matrix(9.3100004196167, 0, 0, 9.3100004196167, 326.54998779296875, 255.55003356933594)">
<path style="stroke: none; stroke-width: 1; stroke-dasharray: none; stroke-linecap: butt; stroke-dashoffset: 0; stroke-linejoin: miter; stroke-miterlimit: 4; fill: rgb(51,103,145); fill-rule: nonzero; opacity: 1;" vector-effect="non-scaling-stroke" transform=" translate(-1005.55, -354.82)" d="M 1010.66 381.96 C 1010.49 381.61 1010.56 381.28 1010.56 380.96 C 1010.56 376.73 1010.56 372.5 1010.56 368.27 C 1010.56 368.01 1010.58 367.74 1010.55 367.48 C 1010.49 366.86 1010.14 366.53 1009.51 366.52 C 1008.45 366.5 1007.39 366.5 1006.34 366.52 C 1005.63 366.53 1005.33 366.85 1005.29 367.55 C 1005.28 367.78 1005.29 368.02 1005.29 368.26 C 1005.29 372.52 1005.29 376.78 1005.29 381.04 C 1005.29 381.33 1005.28 381.62 1005.27 381.87 C 1004.99 382.1 1004.72 382.02 1004.46 382.02 C 1002.23 382.02 999.99 382.02 997.76 382.02 C 995.47 382.02 993.18 382.04 990.89 382.05 C 990.51 382.05 990.12 382.05 989.75 381.99 C 988.78 381.81 988.03 381.28 987.47 380.46 C 986.77 379.42 986.33 378.28 986.08 377.06 C 985.72 375.32 985.87 373.62 986.37 371.93 C 987.09 369.5 988.3 367.33 989.85 365.35 C 990.86 364.05 991.92 362.79 992.97 361.53 C 994.52 359.65 996.15 357.83 997.59 355.87 C 999.66 353.06 1001.11 349.98 1001.86 346.58 C 1002.36 344.33 1002.46 342.05 1002.19 339.75 C 1001.7 335.66 1000.06 332.03 997.79 328.64 C 997.66 328.45 997.53 328.25 997.4 328.05 C 997.37 328.01 997.38 327.94 997.37 327.87 C 997.46 327.65 997.67 327.61 997.87 327.6 C 998.34 327.6 998.81 327.6 999.28 327.6 C 1007.15 327.6 1015.03 327.59 1022.9 327.58 C 1023.28 327.58 1023.66 327.58 1024.05 327.58 C 1024.9 327.61 1025.19 327.9 1025.21 328.77 C 1025.21 329.06 1025.21 329.36 1025.21 329.65 C 1025.21 339.96 1025.2 350.27 1025.2 360.59 C 1025.2 367.08 1025.21 373.58 1025.22 380.07 C 1025.22 380.42 1025.23 380.78 1025.2 381.13 C 1025.15 381.68 1024.84 381.98 1024.29 382.04 C 1024.12 382.06 1023.94 382.05 1023.76 382.05 C 1019.62 382.05 1015.48 382.03 1011.33 382.02 C 1011.1 382.02 1010.87 381.98 1010.66 381.96 Z" stroke-linecap="round"/>
</g>
<g transform="matrix(9.3100004196167, 0, 0, 9.3100004196167, 125.04000091552734, 255.510009765625)">
<path style="stroke: none; stroke-width: 1; stroke-dasharray: none; stroke-linecap: butt; stroke-dashoffset: 0; stroke-linejoin: miter; stroke-miterlimit: 4; fill: rgb(94,146,187); fill-rule: nonzero; opacity: 1;" vector-effect="non-scaling-stroke" transform=" translate(-983.89, -354.81)" d="M 970.73 354.81 C 970.73 346.41 970.73 338.01 970.73 329.61 C 970.73 329.29 970.75 328.96 970.73 328.64 C 970.7 328.17 970.96 327.77 971.62 327.61 C 971.82 327.56 972.03 327.58 972.23 327.58 C 977.52 327.58 982.8 327.58 988.09 327.58 C 989.07 327.58 989.92 327.91 990.65 328.56 C 992.85 330.49 994.52 332.81 995.65 335.5 C 996.16 336.72 996.54 337.99 996.78 339.28 C 997.08 340.87 997.13 342.5 996.95 344.1 C 996.69 346.54 995.93 348.85 994.58 350.93 C 993.67 352.33 992.67 353.67 991.59 354.95 C 990.57 356.16 989.58 357.39 988.58 358.61 C 987.93 359.4 987.25 360.17 986.61 360.97 C 985.45 362.41 984.4 363.92 983.46 365.52 C 982.77 366.69 982.23 367.92 981.76 369.18 C 981.37 370.22 981.12 371.31 980.93 372.4 C 980.79 373.16 980.77 373.91 980.76 374.67 C 980.76 376.09 981.03 377.46 981.6 378.77 C 981.82 379.28 982.03 379.8 982.21 380.32 C 982.67 381.64 982 381.89 981.07 382.03 C 980.95 382.05 980.84 382.03 980.72 382.03 C 977.75 382.03 974.79 382.03 971.82 382.03 C 971.7 382.03 971.58 382.03 971.47 382.03 C 971.01 381.99 970.77 381.77 970.74 381.32 C 970.72 381.12 970.74 380.91 970.74 380.7 C 970.74 372.06 970.74 363.43 970.74 354.79 L 970.74 354.79 Z M 979 344.86 C 979.56 344.86 980.12 344.88 980.67 344.86 C 981.31 344.83 981.62 344.52 981.65 343.86 C 981.67 343.45 981.65 343.04 981.65 342.63 C 981.65 342.01 981.66 341.4 981.65 340.78 C 981.63 340.07 981.38 339.78 980.69 339.63 C 980.49 339.59 980.28 339.58 980.08 339.58 C 979.43 339.58 978.79 339.58 978.14 339.58 C 977.91 339.58 977.67 339.57 977.44 339.58 C 976.74 339.65 976.38 340.02 976.37 340.71 C 976.36 341.8 976.35 342.88 976.37 343.97 C 976.38 344.56 976.66 344.83 977.23 344.85 C 977.82 344.87 978.4 344.85 978.99 344.85 Z" stroke-linecap="round"/>
</g>
</svg>
